<mxfile host="app.diagrams.net" agent="Mozilla/5.0 (Windows NT 10.0; Win64; x64) AppleWebKit/537.36 (KHTML, like Gecko) Chrome/130.0.0.0 Safari/537.36" version="24.8.6">
  <diagram name="Trang-1" id="F0b3ITrHcvL1op7pXS66">
    <mxGraphModel grid="1" page="1" gridSize="10" guides="1" tooltips="1" connect="1" arrows="1" fold="1" pageScale="1" pageWidth="827" pageHeight="1169" math="0" shadow="0">
      <root>
        <mxCell id="0" />
        <mxCell id="1" parent="0" />
        <mxCell id="SlIfXglPh_i07F51QA7S-3" value="" style="edgeStyle=orthogonalEdgeStyle;rounded=0;orthogonalLoop=1;jettySize=auto;html=1;" edge="1" parent="1" source="SlIfXglPh_i07F51QA7S-1" target="SlIfXglPh_i07F51QA7S-2">
          <mxGeometry relative="1" as="geometry" />
        </mxCell>
        <mxCell id="SlIfXglPh_i07F51QA7S-1" value="bắt đầu" style="ellipse;whiteSpace=wrap;html=1;" vertex="1" parent="1">
          <mxGeometry x="380" y="50" width="120" height="80" as="geometry" />
        </mxCell>
        <mxCell id="SlIfXglPh_i07F51QA7S-5" value="" style="edgeStyle=orthogonalEdgeStyle;rounded=0;orthogonalLoop=1;jettySize=auto;html=1;" edge="1" parent="1" source="SlIfXglPh_i07F51QA7S-2" target="SlIfXglPh_i07F51QA7S-4">
          <mxGeometry relative="1" as="geometry" />
        </mxCell>
        <mxCell id="SlIfXglPh_i07F51QA7S-2" value="nhập a,b" style="shape=parallelogram;perimeter=parallelogramPerimeter;whiteSpace=wrap;html=1;fixedSize=1;" vertex="1" parent="1">
          <mxGeometry x="380" y="200" width="120" height="60" as="geometry" />
        </mxCell>
        <mxCell id="SlIfXglPh_i07F51QA7S-7" value="" style="edgeStyle=orthogonalEdgeStyle;rounded=0;orthogonalLoop=1;jettySize=auto;html=1;" edge="1" parent="1" source="SlIfXglPh_i07F51QA7S-4">
          <mxGeometry relative="1" as="geometry">
            <mxPoint x="440" y="480" as="targetPoint" />
          </mxGeometry>
        </mxCell>
        <mxCell id="SlIfXglPh_i07F51QA7S-4" value="c:=a, d:=b" style="shape=parallelogram;perimeter=parallelogramPerimeter;whiteSpace=wrap;html=1;fixedSize=1;" vertex="1" parent="1">
          <mxGeometry x="380" y="340" width="120" height="60" as="geometry" />
        </mxCell>
        <mxCell id="SlIfXglPh_i07F51QA7S-9" value="" style="edgeStyle=orthogonalEdgeStyle;rounded=0;orthogonalLoop=1;jettySize=auto;html=1;" edge="1" parent="1" target="SlIfXglPh_i07F51QA7S-8">
          <mxGeometry relative="1" as="geometry">
            <mxPoint x="440" y="540" as="sourcePoint" />
          </mxGeometry>
        </mxCell>
        <mxCell id="SlIfXglPh_i07F51QA7S-11" value="sai" style="edgeStyle=orthogonalEdgeStyle;rounded=0;orthogonalLoop=1;jettySize=auto;html=1;" edge="1" parent="1" source="SlIfXglPh_i07F51QA7S-8" target="SlIfXglPh_i07F51QA7S-10">
          <mxGeometry relative="1" as="geometry" />
        </mxCell>
        <mxCell id="SlIfXglPh_i07F51QA7S-18" value="đúng" style="edgeStyle=orthogonalEdgeStyle;rounded=0;orthogonalLoop=1;jettySize=auto;html=1;" edge="1" parent="1" source="SlIfXglPh_i07F51QA7S-8" target="SlIfXglPh_i07F51QA7S-17">
          <mxGeometry relative="1" as="geometry" />
        </mxCell>
        <mxCell id="SlIfXglPh_i07F51QA7S-8" value="a=b" style="rhombus;whiteSpace=wrap;html=1;" vertex="1" parent="1">
          <mxGeometry x="400" y="480" width="80" height="80" as="geometry" />
        </mxCell>
        <mxCell id="SlIfXglPh_i07F51QA7S-13" value="sai" style="edgeStyle=orthogonalEdgeStyle;rounded=0;orthogonalLoop=1;jettySize=auto;html=1;" edge="1" parent="1" source="SlIfXglPh_i07F51QA7S-10" target="SlIfXglPh_i07F51QA7S-12">
          <mxGeometry relative="1" as="geometry" />
        </mxCell>
        <mxCell id="SlIfXglPh_i07F51QA7S-20" value="đúng" style="edgeStyle=orthogonalEdgeStyle;rounded=0;orthogonalLoop=1;jettySize=auto;html=1;" edge="1" parent="1" source="SlIfXglPh_i07F51QA7S-10" target="SlIfXglPh_i07F51QA7S-19">
          <mxGeometry relative="1" as="geometry" />
        </mxCell>
        <mxCell id="SlIfXglPh_i07F51QA7S-10" value="a&amp;gt;b" style="rhombus;whiteSpace=wrap;html=1;" vertex="1" parent="1">
          <mxGeometry x="400" y="660" width="80" height="80" as="geometry" />
        </mxCell>
        <mxCell id="SlIfXglPh_i07F51QA7S-14" style="edgeStyle=orthogonalEdgeStyle;rounded=0;orthogonalLoop=1;jettySize=auto;html=1;" edge="1" parent="1" source="SlIfXglPh_i07F51QA7S-12">
          <mxGeometry relative="1" as="geometry">
            <mxPoint x="340" y="440" as="targetPoint" />
            <mxPoint x="340" y="880" as="sourcePoint" />
          </mxGeometry>
        </mxCell>
        <mxCell id="SlIfXglPh_i07F51QA7S-12" value="b:= b-a" style="rhombus;whiteSpace=wrap;html=1;" vertex="1" parent="1">
          <mxGeometry x="400" y="830" width="80" height="80" as="geometry" />
        </mxCell>
        <mxCell id="SlIfXglPh_i07F51QA7S-15" value="" style="endArrow=classic;html=1;rounded=0;" edge="1" parent="1">
          <mxGeometry width="50" height="50" relative="1" as="geometry">
            <mxPoint x="340" y="440" as="sourcePoint" />
            <mxPoint x="440" y="440" as="targetPoint" />
            <Array as="points">
              <mxPoint x="400" y="440" />
            </Array>
          </mxGeometry>
        </mxCell>
        <mxCell id="SlIfXglPh_i07F51QA7S-27" value="" style="edgeStyle=orthogonalEdgeStyle;rounded=0;orthogonalLoop=1;jettySize=auto;html=1;" edge="1" parent="1" source="SlIfXglPh_i07F51QA7S-17" target="SlIfXglPh_i07F51QA7S-26">
          <mxGeometry relative="1" as="geometry" />
        </mxCell>
        <mxCell id="SlIfXglPh_i07F51QA7S-17" value="UCLN := a" style="whiteSpace=wrap;html=1;" vertex="1" parent="1">
          <mxGeometry x="540" y="490" width="120" height="60" as="geometry" />
        </mxCell>
        <mxCell id="SlIfXglPh_i07F51QA7S-21" style="edgeStyle=orthogonalEdgeStyle;rounded=0;orthogonalLoop=1;jettySize=auto;html=1;" edge="1" parent="1" source="SlIfXglPh_i07F51QA7S-19">
          <mxGeometry relative="1" as="geometry">
            <mxPoint x="600" y="961" as="targetPoint" />
          </mxGeometry>
        </mxCell>
        <mxCell id="SlIfXglPh_i07F51QA7S-19" value="a := a-b" style="whiteSpace=wrap;html=1;" vertex="1" parent="1">
          <mxGeometry x="540" y="670" width="120" height="60" as="geometry" />
        </mxCell>
        <mxCell id="SlIfXglPh_i07F51QA7S-22" value="" style="endArrow=classic;html=1;rounded=0;" edge="1" parent="1">
          <mxGeometry width="50" height="50" relative="1" as="geometry">
            <mxPoint x="600" y="960" as="sourcePoint" />
            <mxPoint x="290" y="960" as="targetPoint" />
            <Array as="points">
              <mxPoint x="510" y="960" />
            </Array>
          </mxGeometry>
        </mxCell>
        <mxCell id="SlIfXglPh_i07F51QA7S-24" value="" style="endArrow=classic;html=1;rounded=0;" edge="1" parent="1">
          <mxGeometry width="50" height="50" relative="1" as="geometry">
            <mxPoint x="290" y="950" as="sourcePoint" />
            <mxPoint x="290" y="420" as="targetPoint" />
          </mxGeometry>
        </mxCell>
        <mxCell id="SlIfXglPh_i07F51QA7S-25" value="" style="endArrow=classic;html=1;rounded=0;" edge="1" parent="1">
          <mxGeometry width="50" height="50" relative="1" as="geometry">
            <mxPoint x="290" y="420" as="sourcePoint" />
            <mxPoint x="440" y="420" as="targetPoint" />
          </mxGeometry>
        </mxCell>
        <mxCell id="SlIfXglPh_i07F51QA7S-29" style="edgeStyle=orthogonalEdgeStyle;rounded=0;orthogonalLoop=1;jettySize=auto;html=1;entryX=0.5;entryY=0;entryDx=0;entryDy=0;" edge="1" parent="1" source="SlIfXglPh_i07F51QA7S-26" target="SlIfXglPh_i07F51QA7S-28">
          <mxGeometry relative="1" as="geometry" />
        </mxCell>
        <mxCell id="SlIfXglPh_i07F51QA7S-26" value="BCNN + (c.d)/UCLN" style="whiteSpace=wrap;html=1;" vertex="1" parent="1">
          <mxGeometry x="740" y="490" width="120" height="60" as="geometry" />
        </mxCell>
        <mxCell id="SlIfXglPh_i07F51QA7S-28" value="kẾT THÚC" style="ellipse;whiteSpace=wrap;html=1;" vertex="1" parent="1">
          <mxGeometry x="740" y="700" width="120" height="80" as="geometry" />
        </mxCell>
      </root>
    </mxGraphModel>
  </diagram>
</mxfile>
